<?xml version="1.0" standalone="no"?>
<!DOCTYPE svg PUBLIC "-//W3C//DTD SVG 1.1//EN" "http://www.w3.org/Graphics/SVG/1.1/DTD/svg11.dtd" >
<svg>
<metadata>
Created by FontForge 20090622 at Sun Nov 15 18:58:53 2015
 By deploy user
Copyright (c) Mark Simonson, 2005. All rights reserved.
</metadata>
<defs>
<font id="ProximaNovaT-Thin" horiz-adv-x="425" >
  <font-face 
    font-family="Proxima Nova"
    font-weight="250"
    font-stretch="normal"
    units-per-em="2048"
    panose-1="2 0 5 6 3 0 0 2 0 4"
    ascent="1618"
    descent="-430"
    x-height="989"
    cap-height="1366"
    bbox="-195 -408 2169 1798"
    underline-thickness="40"
    underline-position="-231"
    unicode-range="U+0020-U+FB04"
  />
<missing-glyph horiz-adv-x="1079" 
d="M180 -184v1724h719v-1724h-719zM244 -123h590v1602h-590v-1602z" />
    <glyph glyph-name=".notdef" horiz-adv-x="1079" 
d="M180 -184v1724h719v-1724h-719zM244 -123h590v1602h-590v-1602z" />
    <glyph glyph-name=".null" horiz-adv-x="0" 
 />
    <glyph glyph-name="nonmarkingreturn" horiz-adv-x="682" 
 />
    <glyph glyph-name="space" unicode=" " horiz-adv-x="532" 
 />
    <glyph glyph-name="exclam" unicode="!" 
d="M145 49q0 27 20.5 46.5t47.5 19.5t47.5 -19.5t20.5 -46.5q0 -29 -19.5 -48t-48.5 -19t-48.5 19t-19.5 48zM170 1366h86l-23 -1036h-40z" />
    <glyph glyph-name="quotedbl" unicode="&#x22;" horiz-adv-x="593" 
d="M127 1333.5q0 22.5 15.5 37.5t38 15t37.5 -15t15 -38l-30 -426h-45q-31 404 -31 426.5zM360 1333.5q0 22.5 15.5 37.5t38 15t38 -15t15.5 -38l-31 -426h-45q-31 404 -31 426.5z" />
    <glyph glyph-name="numbersign" unicode="#" horiz-adv-x="1161" 
d="M53 391l19 60h237l156 464h-240l17 60h243l129 391h68l-129 -391h254l129 391h68l-132 -391h236l-14 -60h-240l-158 -464h246l-18 -60h-246l-131 -391h-68l133 391h-256l-131 -391h-67l131 391h-236zM377 451h252l157 464h-254z" />
    <glyph glyph-name="dollar" unicode="$" horiz-adv-x="1177" 
d="M109 193l53 47q156 -193 401 -203v651q-80 23 -125 37t-107.5 44t-96 63.5t-58 87t-24.5 120.5q0 156 119.5 250t291.5 99v184h66v-187q250 -14 393 -190l-51 -47q-125 160 -342 176v-584q78 -23 127 -40t111.5 -51t98 -71.5t61.5 -98t26 -134.5q0 -61 -20.5 -118.5
t-65.5 -114t-132 -93t-206 -43.5v-182h-66v180q-145 4 -262.5 64t-191.5 154zM223 1040q0 -61 25.5 -107t80 -79t103.5 -51.5t131 -42.5v567q-145 -4 -242.5 -85t-97.5 -202zM629 37q98 6 170.5 36.5t110.5 78t54.5 95.5t16.5 99q0 59 -20.5 106.5t-50 79t-80 59t-93.5 43
t-108 36.5v-633z" />
    <glyph glyph-name="percent" unicode="%" horiz-adv-x="1452" 
d="M74 1051q0 145 88 240t225 95t225 -95t88 -240q0 -143 -88 -237.5t-225 -94.5t-225 94.5t-88 237.5zM141 1051q0 -113 70 -195t176 -82q109 0 177.5 81t68.5 196q0 117 -68.5 198.5t-177.5 81.5q-106 0 -176 -81.5t-70 -198.5zM260 0l873 1366h75l-874 -1366h-74z
M752 307q0 145 88 240.5t225 95.5t225 -95t88 -241q0 -143 -88 -237.5t-225 -94.5t-225 94.5t-88 237.5zM819 307q0 -115 68.5 -195.5t177.5 -80.5t177.5 81t68.5 195q0 117 -68.5 199t-177.5 82t-177.5 -82t-68.5 -199z" />
    <glyph glyph-name="ampersand" unicode="&#x26;" horiz-adv-x="1304" 
d="M96 342q0 150 82 244t228 176q-119 184 -119 317t89 220t216 87q123 0 194.5 -65.5t71.5 -183.5q0 -70 -25.5 -126.5t-82 -103.5t-101.5 -76.5t-127 -74.5q-14 -8 -22 -13q76 -109 192 -235q106 -119 205 -217q90 137 162 350l65 -25q-102 -268 -176 -376
q129 -125 262 -240h-108q-70 59 -197 182q-164 -207 -407 -207q-172 0 -287 96.5t-115 270.5zM168 342q0 -145 96 -225t234 -80q201 0 356 196q-162 166 -215 230q-117 133 -199 246q-129 -74 -200.5 -158t-71.5 -209zM358 1079q0 -119 107 -282l98.5 54t82.5 53t75.5 65.5
t44 73.5t20.5 94q0 90 -54 139t-140 49q-96 0 -165 -70t-69 -176z" />
    <glyph glyph-name="quotesingle" unicode="'" horiz-adv-x="360" 
d="M127 1333.5q0 22.5 15.5 37.5t38 15t37.5 -15t15 -38l-30 -426h-45q-31 404 -31 426.5z" />
    <glyph glyph-name="parenleft" unicode="(" horiz-adv-x="421" 
d="M96 497.5q0 483.5 258 905.5l33 -23q-111 -233 -165 -429.5t-54 -452.5q0 -254 54 -453t165 -428l-33 -25q-258 422 -258 905.5z" />
    <glyph glyph-name="parenright" unicode=")" horiz-adv-x="421" 
d="M35 -383q111 229 165 428t54 453q0 256 -54.5 452.5t-164.5 429.5l33 23q258 -422 258 -905.5t-258 -905.5z" />
    <glyph glyph-name="asterisk" unicode="*" horiz-adv-x="675" 
d="M84 1001l217 111l-217 111l31 53l204 -133l-12 243h62l-13 -243l205 133l31 -53l-217 -111l217 -111l-31 -53l-205 133l13 -243h-62l12 243l-204 -133z" />
    <glyph glyph-name="plus" unicode="+" horiz-adv-x="1011" 
d="M59 659v62h414v442h66v-442h413v-62h-413v-454h-66v454h-414z" />
    <glyph glyph-name="comma" unicode="," 
d="M119 -205q49 37 78.5 89.5t29.5 99.5q-12 -2 -16 -2q-29 0 -47.5 19t-18.5 48q0 27 18.5 46.5t47.5 19.5q33 0 56.5 -29t23.5 -80q0 -74 -37 -142.5t-90 -105.5z" />
    <glyph glyph-name="hyphen" unicode="-" horiz-adv-x="614" 
d="M61 465v61h492v-61h-492z" />
    <glyph glyph-name="period" unicode="." 
d="M145 49q0 27 20.5 46.5t47.5 19.5t47.5 -19.5t20.5 -46.5q0 -29 -19.5 -48t-48.5 -19t-48.5 19t-19.5 48z" />
    <glyph glyph-name="slash" unicode="/" horiz-adv-x="548" 
d="M0 -41l485 1448h64l-486 -1448h-63z" />
    <glyph glyph-name="zero" unicode="0" horiz-adv-x="1239" 
d="M133 682q0 127 26.5 246t81 224t153 169.5t227.5 64.5t226 -64.5t151.5 -169.5t81 -224t26.5 -246q0 -125 -26.5 -245t-81 -226.5t-151.5 -171t-226 -64.5t-227.5 64.5t-153 171t-81 226.5t-26.5 245zM205 682q0 -117 21.5 -224.5t67.5 -205.5t130 -156.5t196.5 -58.5
t196.5 59.5t129 156.5t66.5 204.5t21.5 224.5t-21.5 224.5t-66.5 204.5t-129 155.5t-196.5 58.5t-196.5 -58.5t-130 -155.5t-67.5 -204.5t-21.5 -224.5z" />
    <glyph glyph-name="one" unicode="1" horiz-adv-x="567" 
d="M61 1083l265 283h61v-1366h-65v1272l-216 -236z" />
    <glyph glyph-name="two" unicode="2" horiz-adv-x="1181" 
d="M121 0v57l254 214l210 194t180 194.5t104 175t44 181.5q0 154 -101 231.5t-239 77.5q-127 0 -225 -50t-151 -134l-54 39q63 96 177 151t255 55q154 0 279 -93t125 -277q0 -68 -23.5 -138.5t-54.5 -130t-96.5 -137.5t-115.5 -130t-146.5 -139l-153.5 -135l-172 -145h766
v-61h-862z" />
    <glyph glyph-name="three" unicode="3" horiz-adv-x="1087" 
d="M74 205l57 33q125 -201 385 -201q170 0 270.5 87t100.5 238q0 158 -112.5 236t-282.5 78q-94 0 -115 -2v65q20 -2 115 -2q158 0 266 74t108 219q0 135 -101 215t-249 80q-119 0 -206 -45t-167 -139l-51 41q162 205 424 204q170 0 293 -95t123 -261q0 -147 -92 -226
t-199 -97q63 -6 131 -40t124 -115t56 -190q0 -170 -115.5 -278.5t-320.5 -108.5q-154 0 -269.5 66t-172.5 164z" />
    <glyph glyph-name="four" unicode="4" horiz-adv-x="1073" 
d="M78 399v68l624 899h86v-905h207v-62h-207v-399h-65v399h-645zM150 461h573v831z" />
    <glyph glyph-name="five" unicode="5" horiz-adv-x="1175" 
d="M166 205l53 39q137 -207 389 -207q158 0 263.5 105.5t105.5 263.5q0 170 -104.5 271t-264.5 101q-195 0 -344 -141l-55 33v696h745v-61h-680v-596q135 131 334 131q182 0 308 -115t126 -319q0 -193 -128 -312t-306 -119q-297 1 -442 230z" />
    <glyph glyph-name="six" unicode="6" horiz-adv-x="1181" 
d="M133 682q0 133 25.5 252t80 223.5t152.5 166.5t230 62q229 0 358 -184l-49 -43q-115 166 -309 166q-115 0 -201 -58.5t-132 -157.5t-67.5 -211t-21.5 -236q0 -49 2 -74q51 86 166.5 164.5t248.5 78.5q193 0 313 -109.5t120 -320.5q0 -170 -119 -298t-322 -128
q-127 0 -222 58.5t-148.5 161t-79 224.5t-25.5 263zM209 504q8 -82 32.5 -160t69.5 -149.5t122 -114.5t175 -43q178 0 276.5 113.5t98.5 250.5q0 180 -100.5 274.5t-268.5 94.5q-121 0 -231.5 -74.5t-173.5 -191.5z" />
    <glyph glyph-name="seven" unicode="7" horiz-adv-x="1001" 
d="M74 1305v61h854v-45l-604 -1321h-74l600 1305h-776z" />
    <glyph glyph-name="eight" unicode="8" horiz-adv-x="1148" 
d="M135 338q0 139 103.5 234.5t250.5 132.5q-139 33 -235 117.5t-96 213.5q0 168 125 259t292 91q166 0 292 -92t126 -258q0 -129 -96 -214t-235 -117q147 -37 249.5 -132.5t102.5 -234.5q0 -158 -124 -260.5t-315 -102.5q-195 0 -317.5 101.5t-122.5 261.5zM201 338
q0 -135 110.5 -218t263.5 -83q152 0 262.5 83t110.5 218q0 82 -45 149.5t-111.5 105.5t-122 58.5t-94.5 24.5q-39 -4 -95 -24.5t-122.5 -58.5t-111.5 -105.5t-45 -149.5zM223 1036q0 -76 41 -135t107.5 -93t111.5 -48.5t92 -24.5q47 8 93.5 24.5t112 49.5t106.5 92.5
t41 134.5q0 133 -101.5 211t-251 78t-251 -78t-101.5 -211z" />
    <glyph glyph-name="nine" unicode="9" horiz-adv-x="1181" 
d="M133 963q0 170 119 298t321 128q127 0 222.5 -58.5t148.5 -161t79 -224.5t26 -263q0 -133 -26 -252t-80 -223.5t-152.5 -167t-229.5 -62.5q-229 0 -358 185l49 43q115 -166 309 -166q115 0 201 58.5t132 157.5t67.5 211t21.5 236q0 49 -2 74q-51 -86 -167 -165t-249 -79
q-193 0 -312.5 110t-119.5 321zM199 963q0 -180 100 -274.5t268 -94.5q121 0 231.5 74.5t174.5 191.5q-8 82 -33 160t-70 149.5t-121.5 114.5t-175.5 43q-178 0 -276 -113.5t-98 -250.5z" />
    <glyph glyph-name="colon" unicode=":" 
d="M145 49q0 27 20.5 46.5t47.5 19.5t47.5 -19.5t20.5 -46.5q0 -29 -19.5 -48t-48.5 -19t-48.5 19t-19.5 48zM145 936q0 27 19.5 47.5t48.5 20.5t48.5 -20.5t19.5 -47.5t-20.5 -46.5t-47.5 -19.5t-47.5 19.5t-20.5 46.5z" />
    <glyph glyph-name="semicolon" unicode=";" 
d="M119 -205q49 37 78.5 89.5t29.5 99.5q-12 -2 -16 -2q-29 0 -47.5 19t-18.5 48q0 27 18.5 46.5t47.5 19.5q33 0 56.5 -29t23.5 -80q0 -74 -37 -142.5t-90 -105.5zM145 936q0 27 19.5 47.5t48.5 20.5t48.5 -20.5t19.5 -47.5t-20.5 -46.5t-47.5 -19.5t-47.5 19.5t-20.5 46.5
z" />
    <glyph glyph-name="less" unicode="&#x3c;" horiz-adv-x="1011" 
d="M59 664v43l893 481v-74l-809 -430l809 -426v-74z" />
    <glyph glyph-name="equal" unicode="=" horiz-adv-x="1011" 
d="M59 451v61h893v-61h-893zM59 856v62h893v-62h-893z" />
    <glyph glyph-name="greater" unicode="&#x3e;" horiz-adv-x="1011" 
d="M59 184v74l809 426l-809 430v74l893 -481v-43z" />
    <glyph glyph-name="question" unicode="?" horiz-adv-x="956" 
d="M53 1167q154 219 439 219q174 0 277 -91t103 -222q0 -74 -32.5 -136.5t-81.5 -102t-105.5 -80.5l-105.5 -75t-82 -80t-33 -99q0 -61 68 -109l-39 -47q-90 68 -90 156q0 76 44 137t107.5 103l127 86t107.5 106.5t44 140.5q0 106 -82 179t-227 73q-139 0 -230.5 -51
t-161.5 -150zM387 49q0 27 20.5 46.5t47 19.5t47 -19.5t20.5 -46.5q0 -29 -19.5 -48t-48 -19t-48 19t-19.5 48z" />
    <glyph glyph-name="at" unicode="@" horiz-adv-x="1603" 
d="M72 500q0 217 113.5 404.5t301 295t398.5 107.5q283 0 464 -192.5t181 -477.5q0 -215 -89 -339t-220 -124q-78 0 -127.5 53.5t-49.5 126.5v13q-57 -82 -151 -137.5t-199 -55.5q-139 0 -225 88t-86 236q0 217 153.5 371.5t344.5 154.5q100 0 168.5 -50t99.5 -128l29 141
h61l-127 -602q-2 -12 -2 -37q0 -53 32 -86t79 -33q35 0 73.5 19.5t80.5 62.5t68.5 128t26.5 200q0 260 -165.5 433t-425.5 173q-299 0 -522.5 -226t-223.5 -517q0 -250 169 -418t427 -168q199 0 385 117l33 -47q-201 -129 -426 -129q-279 0 -464 185.5t-185 457.5zM451 498
q0 -119 64.5 -194t179 -75t209.5 66.5t159 161.5l70 321q-23 74 -87.5 132.5t-164.5 58.5q-174 0 -302 -144.5t-128 -326.5z" />
    <glyph glyph-name="A" unicode="A" horiz-adv-x="1302" 
d="M43 0l569 1366h78l570 -1366h-76l-152 367h-762l-151 -367h-76zM295 428h713l-357 862z" />
    <glyph glyph-name="B" unicode="B" horiz-adv-x="1228" 
d="M180 0v1366h514q168 0 270.5 -91t102.5 -257q0 -123 -71.5 -208t-170.5 -105q109 -16 189 -117t80 -219q0 -174 -105.5 -271.5t-286.5 -97.5h-522zM246 61h456q150 0 235 82t85 224q0 125 -84 215t-236 90h-456v-611zM246 733h448q145 0 223 80t78 205q0 123 -78.5 205
t-222.5 82h-448v-572z" />
    <glyph glyph-name="C" unicode="C" horiz-adv-x="1366" 
d="M133 682q0 309 196.5 508t485.5 199t475 -215l-51 -46q-74 92 -185.5 145.5t-238.5 53.5q-260 0 -435 -180t-175 -465q0 -283 175 -464t435 -181q127 0 238.5 53t185.5 146l53 -43q-193 -217 -477 -218q-289 0 -485.5 199t-196.5 508z" />
    <glyph glyph-name="D" unicode="D" horiz-adv-x="1400" 
d="M180 0v1366h406q307 0 493.5 -199.5t186.5 -484.5q0 -287 -185.5 -484.5t-494.5 -197.5h-406zM246 61h340q283 0 445.5 176.5t162.5 444.5q0 266 -164 444.5t-444 178.5h-340v-1244z" />
    <glyph glyph-name="E" unicode="E" horiz-adv-x="1142" 
d="M180 0v1366h836v-61h-770v-572h755v-61h-755v-611h770v-61h-836z" />
    <glyph glyph-name="F" unicode="F" horiz-adv-x="1091" 
d="M180 0v1366h836v-61h-770v-572h755v-61h-755v-672h-66z" />
    <glyph glyph-name="G" unicode="G" horiz-adv-x="1449" 
d="M133 682q0 309 196.5 508t485.5 199q295 0 500 -211l-43 -45q-80 92 -201 143t-256 51q-260 0 -435 -180t-175 -465q0 -283 175 -465t435 -182q137 0 250 54t184 130v375h-563v61h629v-462q-90 -100 -220 -160t-280 -60q-289 0 -485.5 199t-196.5 510z" />
    <glyph glyph-name="H" unicode="H" horiz-adv-x="1423" 
d="M180 0v1366h66v-633h932v633h65v-1366h-65v672h-932v-672h-66z" />
    <glyph glyph-name="I" unicode="I" 
d="M180 0v1366h66v-1366h-66z" />
    <glyph glyph-name="J" unicode="J" horiz-adv-x="952" 
d="M33 154l55 49q117 -166 291 -166q150 0 239 95t89 247v987h65v-987q0 -195 -112.5 -299.5t-280.5 -104.5q-219 1 -346 179z" />
    <glyph glyph-name="K" unicode="K" horiz-adv-x="1169" 
d="M180 0v1366h66v-788l710 788h88l-593 -653l655 -713h-88l-608 672l-164 -178v-494h-66z" />
    <glyph glyph-name="L" unicode="L" horiz-adv-x="1021" 
d="M180 0v1366h66v-1305h686v-61h-752z" />
    <glyph glyph-name="M" unicode="M" horiz-adv-x="1576" 
d="M180 0v1366h105l503 -1223l504 1223h105v-1366h-66v1288l-532 -1288h-21l-532 1288v-1288h-66z" />
    <glyph glyph-name="N" unicode="N" horiz-adv-x="1413" 
d="M180 0v1366h66l921 -1247v1247h66v-1366h-66l-921 1260v-1260h-66z" />
    <glyph glyph-name="O" unicode="O" horiz-adv-x="1564" 
d="M133 682q0 303 178 505t471 202q291 0 470.5 -202t179.5 -505t-179.5 -505t-470.5 -202q-293 0 -471 202t-178 505zM205 682q0 -283 157.5 -464t419.5 -181q260 0 419 181t159 464q0 285 -159 465t-419 180q-262 0 -419.5 -180t-157.5 -465z" />
    <glyph glyph-name="P" unicode="P" horiz-adv-x="1136" 
d="M180 0v1366h473q184 0 292 -111.5t108 -275.5q0 -162 -108.5 -274.5t-291.5 -112.5h-407v-592h-66zM246 653h405q150 0 240 91.5t90 234.5t-90 234.5t-240 91.5h-405v-652z" />
    <glyph glyph-name="Q" unicode="Q" horiz-adv-x="1564" 
d="M133 682q0 303 178 505t471 202q291 0 470.5 -202t179.5 -505q0 -322 -201 -526l158 -156l-46 -47l-159 160q-170 -137 -402 -138q-293 0 -471 202t-178 505zM205 682q0 -283 157.5 -464t419.5 -181q205 0 355 121l-226 227l47 47l228 -229q174 180 174 479
q0 285 -159 465t-419 180q-262 0 -419.5 -180t-157.5 -465z" />
    <glyph glyph-name="R" unicode="R" horiz-adv-x="1185" 
d="M180 0v1366h471q174 0 289 -103.5t115 -283.5t-116 -284.5t-288 -104.5l422 -590h-84l-416 590h-327v-590h-66zM246 651h405q150 0 241 92.5t91 235.5t-91 234.5t-241 91.5h-405v-654z" />
    <glyph glyph-name="S" unicode="S" horiz-adv-x="1177" 
d="M109 193l53 47q166 -203 424 -203q113 0 194.5 29.5t122.5 78t59.5 98.5t18.5 103q0 104 -61.5 175t-153.5 101.5l-199.5 64.5l-200 65.5t-153.5 105.5t-61 182q0 160 124.5 254.5t303.5 94.5q287 0 442 -193l-51 -47q-137 178 -391 178q-152 0 -254.5 -81t-102.5 -206
q0 -78 46 -133t119 -85.5t162 -56.5t177 -55.5t161 -70.5t119 -115.5t46 -177.5q0 -63 -22.5 -123.5t-72 -119t-145.5 -93.5t-227 -35q-154 0 -276.5 60t-200.5 158z" />
    <glyph glyph-name="T" unicode="T" horiz-adv-x="1144" 
d="M78 1305v61h989v-61h-463v-1305h-65v1305h-461z" />
    <glyph glyph-name="U" unicode="U" horiz-adv-x="1376" 
d="M180 518v848h66v-848q0 -229 114.5 -355t327.5 -126t327.5 126t114.5 355v848h66v-848q0 -256 -131 -399.5t-377 -143.5t-377 143.5t-131 399.5z" />
    <glyph glyph-name="V" unicode="V" horiz-adv-x="1302" 
d="M43 1366h76l532 -1290l533 1290h76l-570 -1366h-78z" />
    <glyph glyph-name="W" unicode="W" horiz-adv-x="1744" 
d="M51 1366h72l356 -1268l359 1268h69l359 -1268l356 1268h72l-389 -1366h-78l-355 1243l-354 -1243h-78z" />
    <glyph glyph-name="X" unicode="X" horiz-adv-x="1306" 
d="M51 0l565 700l-534 666h88l483 -612l484 612h88l-535 -664l565 -702h-86l-516 651l-516 -651h-86z" />
    <glyph glyph-name="Y" unicode="Y" horiz-adv-x="1249" 
d="M43 1366h84l498 -709l497 709h84l-549 -774v-592h-65v592z" />
    <glyph glyph-name="Z" unicode="Z" horiz-adv-x="1183" 
d="M109 0v61l874 1244h-874v61h952v-61l-877 -1244h891v-61h-966z" />
    <glyph glyph-name="bracketleft" unicode="[" horiz-adv-x="434" 
d="M70 -389v1778h329v-62h-268v-1655h268v-61h-329z" />
    <glyph glyph-name="backslash" unicode="\" horiz-adv-x="548" 
d="M0 1407h63l486 -1448h-64z" />
    <glyph glyph-name="bracketright" unicode="]" horiz-adv-x="434" 
d="M35 -328h268v1655h-268v62h330v-1778h-330v61z" />
    <glyph glyph-name="asciicircum" unicode="^" horiz-adv-x="868" 
d="M39 682l369 684h53l368 -684h-69l-326 629l-325 -629h-70z" />
    <glyph glyph-name="underscore" unicode="_" horiz-adv-x="1155" 
d="M-6 -82h1167v-61h-1167v61z" />
    <glyph glyph-name="grave" unicode="`" horiz-adv-x="419" 
d="M0 1434h92l328 -295h-62z" />
    <glyph glyph-name="a" unicode="a" horiz-adv-x="1052" 
d="M127 305.5q0 151.5 102.5 240.5t243.5 89q209 0 342 -146v224q0 115 -80 180t-198 65q-188 0 -318 -155l-47 41q76 88 160 129t205 41q152 0 246 -77t94 -222v-715h-62v121q-133 -145 -342 -146q-139 0 -242.5 89.5t-103.5 241zM195 305q0 -117 80.5 -195.5t213.5 -78.5
q211 0 326 151v246q-115 152 -326 152q-133 0 -213.5 -79t-80.5 -196z" />
    <glyph glyph-name="b" unicode="b" horiz-adv-x="1159" 
d="M176 0v1366h62v-547q61 90 154 142.5t202 52.5q199 0 320.5 -143.5t121.5 -376.5q0 -236 -120.5 -377.5t-321.5 -141.5q-111 0 -207 54.5t-149 136.5v-166h-62zM238 227q49 -82 147 -139t209 -57q176 0 275.5 130t99.5 332.5t-99.5 333.5t-275.5 131q-111 0 -209 -59
t-147 -141v-531z" />
    <glyph glyph-name="c" unicode="c" horiz-adv-x="1009" 
d="M123 495.5q0 219.5 129 369t338 149.5q115 0 192.5 -41t145.5 -125l-45 -37q-109 147 -289 147q-186 0 -295 -132t-109 -330q0 -201 110 -333t294 -132q178 0 289 149l45 -39q-68 -84 -145.5 -125t-192.5 -41q-209 0 -338 150.5t-129 370z" />
    <glyph glyph-name="d" unicode="d" horiz-adv-x="1159" 
d="M123 494q0 233 122 376.5t320 143.5q109 0 202 -52.5t155 -142.5v547h61v-1366h-61v166q-53 -82 -149.5 -136.5t-207.5 -54.5q-201 0 -321.5 141.5t-120.5 377.5zM190 493.5q0 -202.5 99.5 -332.5t275.5 -130q111 0 209 57t148 139v531q-49 82 -147.5 141t-209.5 59
q-176 0 -275.5 -131t-99.5 -333.5z" />
    <glyph glyph-name="e" unicode="e" horiz-adv-x="1169" 
d="M123 496q0 217 133 367.5t332 150.5q217 0 338 -149.5t121 -368.5v-21h-854q4 -188 117.5 -316t297.5 -128q205 0 344 149l37 -39q-160 -166 -381 -166q-215 0 -350 147t-135 374zM193 530h788q0 100 -41 195.5t-134 164t-220 68.5q-178 0 -282.5 -132t-110.5 -296z" />
    <glyph glyph-name="f" unicode="f" horiz-adv-x="503" 
d="M41 934v55h164v105q0 137 65.5 214.5t182.5 77.5q92 0 168 -61l-37 -49q-59 55 -131 55q-186 0 -187 -237v-105h201v-55h-201v-934h-61v934h-164z" />
    <glyph glyph-name="g" unicode="g" horiz-adv-x="1159" 
d="M123 492q0 233 122 377.5t320 144.5q109 0 202 -52.5t155 -142.5v170h61v-995q0 -203 -113.5 -299t-304.5 -96q-129 0 -212 30.5t-167 118.5l45 51q63 -80 140.5 -112.5t193.5 -32.5q158 0 257.5 85t99.5 255v172q-55 -82 -150.5 -138.5t-206.5 -56.5
q-201 0 -321.5 142.5t-120.5 378.5zM190 491.5q0 -202.5 99.5 -333.5t275.5 -131q111 0 209 59t148 141v531q-49 82 -147.5 141t-209.5 59q-176 0 -275.5 -132t-99.5 -334.5z" />
    <glyph glyph-name="h" unicode="h" horiz-adv-x="1081" 
d="M176 0v1366h62v-532q59 72 159.5 126t198.5 54q154 0 231.5 -75t77.5 -245v-694h-61v694q0 147 -65.5 205.5t-190.5 58.5q-98 0 -196.5 -54t-153.5 -132v-772h-62z" />
    <glyph glyph-name="i" unicode="i" horiz-adv-x="413" 
d="M147 1218.5q0 24.5 18.5 42t41.5 17.5q25 0 42 -17.5t17 -42t-17.5 -42t-41.5 -17.5q-23 0 -41.5 17.5t-18.5 42zM176 0v989h62v-989h-62z" />
    <glyph glyph-name="j" unicode="j" horiz-adv-x="413" 
d="M-195 -324l39 52q66 -74 150 -74q82 0 132 47t50 143v1145h62v-1145q0 -246 -244 -245q-105 -1 -189 77zM147 1218.5q0 24.5 18.5 42t41.5 17.5q25 0 42 -17.5t17 -42t-17.5 -42t-41.5 -17.5q-23 0 -41.5 17.5t-18.5 42z" />
    <glyph glyph-name="k" unicode="k" horiz-adv-x="1015" 
d="M176 0v1366h62v-979l645 602h88l-482 -446l476 -543h-88l-435 498l-204 -189v-309h-62z" />
    <glyph glyph-name="l" unicode="l" horiz-adv-x="413" 
d="M176 0v1366h62v-1366h-62z" />
    <glyph glyph-name="m" unicode="m" horiz-adv-x="1576" 
d="M176 0v989h62v-155q37 59 129 119.5t188 60.5q109 0 174.5 -55.5t81.5 -133.5q45 74 136 131.5t190 57.5q264 0 264 -301v-713h-62v713q0 246 -213 245q-82 0 -171 -54t-136 -130v-774h-61v713q0 246 -213 245q-82 0 -169 -54t-138 -132v-772h-62z" />
    <glyph glyph-name="n" unicode="n" horiz-adv-x="1081" 
d="M176 0v989h62v-155q59 72 159.5 126t198.5 54q154 0 231.5 -77t77.5 -247v-690h-61v690q0 147 -65.5 207.5t-190.5 60.5q-98 0 -196.5 -54t-153.5 -132v-772h-62z" />
    <glyph glyph-name="o" unicode="o" horiz-adv-x="1167" 
d="M123 496q0 221 128 369.5t333 148.5q207 0 333.5 -147.5t126.5 -371t-126.5 -372t-333.5 -148.5q-205 0 -333 149t-128 372zM190 496q0 -193 106.5 -329t287.5 -136q182 0 287.5 136t105.5 329q0 190 -105.5 326t-287.5 136q-180 0 -287 -136t-107 -326z" />
    <glyph glyph-name="p" unicode="p" horiz-adv-x="1150" 
d="M176 -377v1366h62v-166q53 82 149 136.5t207 54.5q201 0 321.5 -141.5t120.5 -376.5q0 -233 -121.5 -377t-320.5 -144q-109 0 -202 52.5t-154 142.5v-547h-62zM238 231q49 -82 147 -141t209 -59q176 0 275.5 131t99.5 333.5t-99.5 332.5t-275.5 130q-111 0 -209 -57
t-147 -139v-531z" />
    <glyph glyph-name="q" unicode="q" horiz-adv-x="1150" 
d="M115 496q0 236 120.5 377t321.5 141q111 0 207 -54.5t149 -136.5v166h62v-1366h-62v547q-61 -90 -154 -142.5t-202 -52.5q-199 0 -320.5 144t-121.5 377zM182 495.5q0 -202.5 99.5 -333.5t275.5 -131q111 0 209 59.5t147 140.5v531q-49 82 -147 139t-209 57
q-176 0 -275.5 -130t-99.5 -332.5z" />
    <glyph glyph-name="r" unicode="r" horiz-adv-x="622" 
d="M176 0v989h62v-180q150 199 340 199v-74q-18 2 -50 2q-76 0 -166 -61.5t-124 -133.5v-741h-62z" />
    <glyph glyph-name="s" unicode="s" horiz-adv-x="929" 
d="M90 133l49 45q111 -147 314 -147q133 0 212.5 64.5t79.5 164.5q0 84 -65.5 133t-158.5 72.5t-186 49.5t-158.5 83t-65.5 154q0 113 90 187.5t245 74.5q223 0 340 -150l-45 -41q-94 135 -295 135q-127 0 -200.5 -58t-73.5 -148q0 -76 65.5 -120t158.5 -66.5t186.5 -49.5
t159 -89t65.5 -167q0 -123 -91 -204t-263 -81q-226 0 -363 158z" />
    <glyph glyph-name="t" unicode="t" horiz-adv-x="524" 
d="M25 934v55h163v271h62v-271h201v-55h-201v-760q0 -143 106 -143q72 0 117 53l37 -47q-66 -61 -154 -62q-168 0 -168 199v760h-163z" />
    <glyph glyph-name="u" unicode="u" horiz-adv-x="1081" 
d="M176 295v694h62v-694q0 -147 65.5 -205.5t190.5 -58.5q98 0 197.5 52t152.5 128v778h61v-989h-61v152q-68 -76 -164 -126.5t-195 -50.5q-154 0 -231.5 75t-77.5 245z" />
    <glyph glyph-name="v" unicode="v" horiz-adv-x="964" 
d="M23 989h71l389 -917l387 917h72l-424 -989h-72z" />
    <glyph glyph-name="w" unicode="w" horiz-adv-x="1441" 
d="M45 989h68l286 -893l297 893h49l297 -893l287 893h68l-328 -989h-49l-299 897l-299 -897h-49z" />
    <glyph glyph-name="x" unicode="x" horiz-adv-x="966" 
d="M45 0l404 508l-381 481h79l336 -438l336 438h80l-381 -481l404 -508h-80l-359 467l-358 -467h-80z" />
    <glyph glyph-name="y" unicode="y" horiz-adv-x="964" 
d="M23 989h71l389 -917l387 917h72l-524 -1222q-74 -168 -217 -168q-55 0 -99 14l13 57q37 -16 86 -16q51 0 87 29.5t68 105.5l90 205z" />
    <glyph glyph-name="z" unicode="z" horiz-adv-x="954" 
d="M123 0v55l629 879h-629v55h700v-55l-633 -879h641v-55h-708z" />
    <glyph glyph-name="braceleft" unicode="{" horiz-adv-x="485" 
d="M14 469v61q51 0 79 43t28 105v479q0 100 61.5 166t141.5 66h127v-62h-127q-57 0 -99.5 -49t-42.5 -121v-479q0 -139 -92 -178q92 -39 92 -178v-480q0 -72 42 -121t100 -49h127v-61h-127q-80 0 -141.5 65.5t-61.5 165.5v480q0 61 -28 104t-79 43z" />
    <glyph glyph-name="bar" unicode="|" horiz-adv-x="421" 
d="M180 -41v1448h62v-1448h-62z" />
    <glyph glyph-name="braceright" unicode="}" horiz-adv-x="485" 
d="M35 -328h127q57 0 99 49.5t42 120.5v480q0 139 92 178q-92 39 -92 178v479q0 72 -42 121t-99 49h-127v62h127q80 0 141.5 -66t61.5 -166v-479q0 -61 27.5 -104.5t78.5 -43.5v-61q-51 0 -78.5 -43t-27.5 -104v-480q0 -100 -61.5 -165.5t-141.5 -65.5h-127v61z" />
    <glyph glyph-name="asciitilde" unicode="~" horiz-adv-x="1015" 
d="M57 893q20 215 81 342t184 127q68 0 114.5 -43t70 -103.5t45 -122t56.5 -104.5t86 -43q86 0 134.5 103.5t68.5 316.5l61 -6q-14 -139 -38.5 -236.5t-82 -167t-143.5 -69.5q-84 0 -136 64.5t-72.5 142t-61.5 142t-102 64.5q-162 0 -203 -417z" />
    <glyph glyph-name="uni00A0" unicode="&#xa0;" horiz-adv-x="532" 
 />
    <glyph glyph-name="exclamdown" unicode="&#xa1;" 
d="M145 940q0 27 19.5 47.5t48.5 20.5t48.5 -20.5t19.5 -47.5t-20.5 -46.5t-47.5 -19.5t-47.5 19.5t-20.5 46.5zM170 -377l23 1036h40l23 -1036h-86z" />
    <glyph glyph-name="cent" unicode="&#xa2;" horiz-adv-x="1009" 
d="M123 495.5q0 204.5 112.5 349t301.5 165.5v147h61v-143q197 -2 330 -166l-45 -37q-109 143 -285 147v-927q174 0 285 149l45 -39q-133 -164 -330 -166v-180h-61v185q-188 20 -301 165.5t-113 350zM190 495.5q0 -182.5 93.5 -312.5t253.5 -150v921q-162 -20 -254.5 -148
t-92.5 -310.5z" />
    <glyph glyph-name="sterling" unicode="&#xa3;" horiz-adv-x="1005" 
d="M35 547v61h293q-14 16 -69.5 73.5t-79 89.5t-49.5 95.5t-26 134.5q0 154 120 269.5t306 115.5q113 0 212.5 -58t146.5 -154l-53 -37q-31 74 -115 131t-191 57q-150 0 -254 -87t-104 -237q0 -68 24.5 -129t53.5 -96t77 -87t70 -81h312v-61h-273q33 -61 33 -131
q0 -102 -46 -172t-130 -133q57 20 113 20q72 0 171 -49t160 -49q66 0 127.5 28.5t85.5 59.5l37 -55q-98 -94 -254 -95q-94 0 -184 49.5t-180 49.5q-80 0 -244 -84l-29 67q156 66 234 160t78 203q0 68 -37 131h-336z" />
    <glyph glyph-name="currency" unicode="&#xa4;" horiz-adv-x="1181" 
d="M63 1167l43 43l168 -170q129 119 316 119q188 0 315 -117l166 166l43 -43l-168 -168q104 -129 105 -315q0 -182 -103 -313l166 -166l-43 -43l-164 164q-127 -121 -317 -121q-193 0 -318 121l-163 -164l-43 43l165 166q-102 131 -102 313q0 186 104 315zM197 682
q0 -172 106.5 -295t286.5 -123q182 0 287.5 123t105.5 295t-105.5 294t-287.5 122q-180 0 -286.5 -123t-106.5 -293z" />
    <glyph glyph-name="yen" unicode="&#xa5;" horiz-adv-x="1249" 
d="M43 264v62h549v266h-549v61h504l-504 713h84l498 -709l497 709h84l-506 -713h506v-61h-549v-266h549v-62h-549v-264h-65v264h-549z" />
    <glyph glyph-name="brokenbar" unicode="&#xa6;" horiz-adv-x="421" 
d="M180 -41v647h62v-647h-62zM180 760v647h62v-647h-62z" />
    <glyph glyph-name="section" unicode="&#xa7;" horiz-adv-x="929" 
d="M90 -8l49 45q111 -147 314 -148q129 0 210.5 62.5t81.5 167.5q0 82 -65.5 132t-158.5 73.5l-186 49t-158.5 83t-65.5 153.5q0 106 72.5 173t193.5 94q-131 37 -198.5 92t-67.5 155q0 111 88 186.5t247 75.5q221 0 340 -149l-45 -41q-98 135 -295 135q-119 0 -196.5 -58.5
t-77.5 -152.5q0 -76 65.5 -120t158.5 -65.5t186.5 -47t159 -90t65.5 -170.5q0 -180 -205 -260q102 -37 153.5 -95.5t51.5 -152.5q0 -133 -97.5 -209t-256.5 -76q-133 0 -214 41t-149 117zM172 606q0 -47 25.5 -82t69.5 -56.5t100.5 -37.5l119.5 -33q31 -6 45 -10
q213 92 213 246q0 51 -23.5 89t-71.5 63.5t-85 39t-102 29.5q-162 -43 -226.5 -102.5t-64.5 -145.5z" />
    <glyph glyph-name="dieresis" unicode="&#xa8;" horiz-adv-x="516" 
d="M-6 1224.5q0 22.5 17.5 40t40 17.5t40 -17.5t17.5 -40t-17.5 -40t-40 -17.5t-40 17.5t-17.5 40zM408 1224.5q0 22.5 17 40t39.5 17.5t40 -17.5t17.5 -40t-17.5 -40t-40 -17.5t-39.5 17.5t-17 40z" />
    <glyph glyph-name="copyright" unicode="&#xa9;" horiz-adv-x="1593" 
d="M90 684q0 293 207 500t500 207t499.5 -207t206.5 -500t-206.5 -500t-499.5 -207t-500 208t-207 499zM143 684q0 -268 192.5 -460.5t461.5 -192.5q270 0 461.5 192.5t191.5 460.5q0 270 -191.5 461.5t-461.5 191.5q-268 0 -461 -191.5t-193 -461.5zM371 688
q0 186 123.5 312t302.5 126q182 0 295 -131l-41 -41q-39 53 -110 85t-144 32q-150 0 -258.5 -107.5t-108.5 -277.5q0 -166 109.5 -276.5t257.5 -110.5q74 0 144.5 33t109.5 86l41 -41q-115 -133 -295 -133q-178 0 -302 129t-124 315z" />
    <glyph glyph-name="ordfeminine" unicode="&#xaa;" horiz-adv-x="761" 
d="M102 866q0 98 69 155.5t163 57.5q139 0 231 -94v139q0 72 -55 112t-129 40q-131 0 -211 -102l-37 38q98 115 250 115q106 0 172 -51t66 -152v-456h-56v77q-92 -94 -231 -94q-92 0 -162 59.5t-70 155.5zM162 866q0 -74 52 -122t138 -48q137 0 213 95v149q-76 94 -213 94
q-84 0 -137 -48t-53 -120z" />
    <glyph glyph-name="guillemotleft" unicode="&#xab;" horiz-adv-x="745" 
d="M61 498l328 362h80l-328 -362l328 -369h-80zM276 498l328 362h80l-328 -362l328 -369h-80z" />
    <glyph glyph-name="logicalnot" unicode="&#xac;" horiz-adv-x="1011" 
d="M59 856v62h893v-467h-65v405h-828z" />
    <glyph glyph-name="uni00AD" unicode="&#xad;" horiz-adv-x="614" 
d="M61 465v61h492v-61h-492z" />
    <glyph glyph-name="registered" unicode="&#xae;" horiz-adv-x="1011" 
d="M72 952.5q0 180.5 127 307t307 126.5q182 0 308 -125.5t126 -308.5q0 -180 -127 -307t-307 -127t-307 127t-127 307.5zM125 952q0 -158 111.5 -269.5t269.5 -111.5t269.5 112t111.5 269q0 160 -111.5 270.5t-269.5 110.5t-269.5 -110.5t-111.5 -270.5zM342 702v498h203
q63 0 107 -42t44 -109q0 -72 -46 -110t-81 -38l133 -199h-75l-129 197h-97v-197h-59zM401 956h144q33 0 61.5 28t28.5 65q0 41 -28.5 68.5t-61.5 27.5h-144v-189z" />
    <glyph glyph-name="macron" unicode="&#xaf;" horiz-adv-x="743" 
d="M0 1190v55h743v-55h-743z" />
    <glyph glyph-name="degree" unicode="&#xb0;" horiz-adv-x="559" 
d="M53 1159q0 94 65.5 160.5t160 66.5t161 -66.5t66.5 -160.5t-66.5 -159.5t-161 -65.5t-160 65.5t-65.5 159.5zM115 1159.5q0 -67.5 48 -116t115.5 -48.5t116.5 48.5t49 116t-49 116.5t-116.5 49t-115.5 -49t-48 -116.5z" />
    <glyph glyph-name="plusminus" unicode="&#xb1;" horiz-adv-x="1011" 
d="M59 0v61h893v-61h-893zM59 659v62h414v442h66v-442h413v-62h-413v-454h-66v454h-414z" />
    <glyph glyph-name="uni00B2" unicode="&#xb2;" horiz-adv-x="778" 
d="M111 862v49q244 176 367.5 305.5t123.5 245.5q0 90 -60.5 134t-144.5 44q-160 0 -233 -108l-41 37q88 125 276 125q102 0 182.5 -57.5t80.5 -172.5q0 -131 -118 -258t-343 -291h465v-53h-555z" />
    <glyph glyph-name="uni00B3" unicode="&#xb3;" horiz-adv-x="778" 
d="M102 983l41 35q82 -117 242 -117q102 0 161.5 48t59.5 132q0 90 -67.5 134.5t-171.5 44.5q-61 0 -74 -3v56q12 -2 74 -2q98 0 162.5 41t64.5 125q0 76 -61.5 119.5t-149.5 43.5q-137 0 -231 -106l-39 37q104 123 272 123q113 0 190.5 -58.5t77.5 -156.5q0 -88 -57 -135.5
t-125 -57.5q68 -6 132.5 -58t64.5 -147q0 -104 -76 -168.5t-207 -64.5q-98 0 -172 38t-111 97z" />
    <glyph glyph-name="acute" unicode="&#xb4;" horiz-adv-x="419" 
d="M0 1139l328 295h92l-359 -295h-61z" />
    <glyph glyph-name="uni00B5" unicode="&#xb5;" horiz-adv-x="1110" 
d="M176 -377v1366h62v-694q0 -268 260 -268q96 0 194.5 54t151.5 130v778h61v-815q0 -143 107 -143q25 0 41 4l6 -55q-25 -4 -47 -5q-154 0 -168 177q-66 -76 -159 -126.5t-187 -50.5q-195 0 -260 134v-486h-62z" />
    <glyph glyph-name="paragraph" unicode="&#xb6;" horiz-adv-x="919" 
d="M55 1013.5q0 145.5 103.5 249t249.5 103.5h323v-1571h-61v1510h-201v-1510h-61v867q-145 0 -249 103t-104 248.5z" />
    <glyph glyph-name="periodcentered" unicode="&#xb7;" 
d="M145 501.5q0 26.5 20.5 46t47.5 19.5t47.5 -19.5t20.5 -46t-19.5 -47t-48.5 -20.5t-48.5 20.5t-19.5 47z" />
    <glyph glyph-name="cedilla" unicode="&#xb8;" horiz-adv-x="391" 
d="M0 -326l29 56q66 -57 161 -58q59 0 100.5 28t41.5 73q0 88 -90 88q-55 0 -88 -39l-45 26l63 175h61l-53 -142q31 25 78 25q59 0 96 -36t37 -97q0 -68 -57.5 -112t-143.5 -44q-118 0 -190 57z" />
    <glyph glyph-name="uni00B9" unicode="&#xb9;" horiz-adv-x="393" 
d="M41 1499l174 182h55v-819h-61v737l-129 -141z" />
    <glyph glyph-name="ordmasculine" unicode="&#xba;" horiz-adv-x="829" 
d="M98 989q0 145 88 241.5t228 96.5q141 0 229 -96t88 -242q0 -143 -88 -240.5t-229 -97.5q-139 0 -227.5 97.5t-88.5 240.5zM160 989q0 -119 68.5 -201.5t185.5 -82.5q119 0 188.5 82.5t69.5 201.5t-70 201t-188 82q-117 0 -185.5 -82t-68.5 -201z" />
    <glyph glyph-name="guillemotright" unicode="&#xbb;" horiz-adv-x="745" 
d="M61 129l328 369l-328 362h80l328 -362l-328 -369h-80zM276 129l328 369l-328 362h80l328 -362l-328 -369h-80z" />
    <glyph glyph-name="onequarter" unicode="&#xbc;" horiz-adv-x="1464" 
d="M41 1184l174 182h55v-819h-61v737l-129 -141zM170 0l872 1366h76l-874 -1366h-74zM782 231v54l381 534h80v-534h127v-54h-127v-231h-59v231h-402zM846 285h338v475z" />
    <glyph glyph-name="onehalf" unicode="&#xbd;" horiz-adv-x="1546" 
d="M41 1184l174 182h55v-819h-61v737l-129 -141zM170 0l872 1366h76l-874 -1366h-74zM879 0v49q244 176 367.5 305t123.5 246q0 90 -60.5 134t-144.5 44q-160 0 -233 -108l-41 37q88 125 276 124q102 0 182.5 -57t80.5 -172q0 -131 -118 -258t-343 -291h465v-53h-555z" />
    <glyph glyph-name="threequarters" unicode="&#xbe;" horiz-adv-x="1722" 
d="M102 668l41 34q82 -117 242 -116q102 0 161.5 48t59.5 132q0 90 -67.5 134t-171.5 44q-61 0 -74 -2v55q12 -2 74 -2q98 0 162.5 41t64.5 125q0 76 -61.5 120t-149.5 44q-137 0 -231 -106l-39 36q104 123 272 123q113 0 190.5 -58t77.5 -157q0 -88 -57 -135t-125 -57
q68 -6 132.5 -58.5t64.5 -146.5q0 -104 -76 -169t-207 -65q-98 0 -172 38.5t-111 97.5zM428 0l872 1366h76l-874 -1366h-74zM1040 231v54l381 534h80v-534h127v-54h-127v-231h-59v231h-402zM1104 285h338v475z" />
    <glyph glyph-name="questiondown" unicode="&#xbf;" horiz-adv-x="800" 
d="M84 -90q0 74 33 136.5t82 102t105 80.5l105.5 75t82 80t32.5 99q0 61 -67 109l39 47q90 -68 90 -156q0 -76 -44 -137t-107.5 -103l-127 -86t-107.5 -106.5t-44 -140.5q0 -106 81.5 -179t227.5 -73q139 0 230 51t161 150l47 -43q-154 -219 -438 -219q-174 0 -277.5 91
t-103.5 222zM434 940q0 27 20.5 47.5t47 20.5t47 -20.5t20.5 -47.5t-20.5 -46.5t-47 -19.5t-47 19.5t-20.5 46.5z" />
    <glyph glyph-name="Agrave" unicode="&#xc0;" horiz-adv-x="1302" 
d="M43 0l569 1366h78l570 -1366h-76l-152 367h-762l-151 -367h-76zM295 428h713l-357 862zM336 1776h92l328 -295h-62z" />
    <glyph glyph-name="Aacute" unicode="&#xc1;" horiz-adv-x="1302" 
d="M43 0l569 1366h78l570 -1366h-76l-152 367h-762l-151 -367h-76zM295 428h713l-357 862zM547 1481l327 295h93l-359 -295h-61z" />
    <glyph glyph-name="Acircumflex" unicode="&#xc2;" horiz-adv-x="1302" 
d="M43 0l569 1366h78l570 -1366h-76l-152 367h-762l-151 -367h-76zM295 428h713l-357 862zM414 1481l200 295h74l207 -295h-57l-187 245l-180 -245h-57z" />
    <glyph glyph-name="Atilde" unicode="&#xc3;" horiz-adv-x="1302" 
d="M43 0l569 1366h78l570 -1366h-76l-152 367h-762l-151 -367h-76zM295 428h713l-357 862zM344 1489q0 117 48 195.5t132 78.5q53 0 91 -35.5t55.5 -79.5t47.5 -80t68 -36q53 0 87 54t34 165h54q0 -117 -48.5 -195.5t-132.5 -78.5q-53 0 -91 35.5t-55.5 79.5t-47 80
t-68.5 36q-53 0 -87 -54.5t-34 -164.5h-53z" />
    <glyph glyph-name="Adieresis" unicode="&#xc4;" horiz-adv-x="1302" 
d="M43 0l569 1366h78l570 -1366h-76l-152 367h-762l-151 -367h-76zM295 428h713l-357 862zM389 1566.5q0 22.5 17.5 40t40 17.5t40 -17.5t17.5 -40t-17.5 -40t-40 -17.5t-40 17.5t-17.5 40zM803 1566.5q0 22.5 17.5 40t40 17.5t40 -17.5t17.5 -40t-17.5 -40t-40 -17.5
t-40 17.5t-17.5 40z" />
    <glyph glyph-name="Aring" unicode="&#xc5;" horiz-adv-x="1302" 
d="M43 0l569 1366h78l570 -1366h-76l-152 367h-762l-151 -367h-76zM295 428h713l-357 862zM463 1608q0 78 56 134t134 56t133.5 -56t55.5 -134t-55.5 -134.5t-133.5 -56.5t-134 56.5t-56 134.5zM512 1607.5q0 -59.5 41 -100.5t100 -41q57 0 98.5 41t41.5 100.5t-41 100.5
t-99 41q-59 0 -100 -41t-41 -100.5z" />
    <glyph glyph-name="AE" unicode="&#xc6;" horiz-adv-x="1904" 
d="M43 0l870 1366h859v-61h-771v-572h756v-61h-756v-611h771v-61h-836v367h-586l-231 -367h-76zM385 428h551v862z" />
    <glyph glyph-name="Ccedilla" unicode="&#xc7;" horiz-adv-x="1366" 
d="M133 682q0 309 196.5 508t485.5 199t475 -215l-51 -46q-74 92 -185.5 145.5t-238.5 53.5q-260 0 -435 -180t-175 -465q0 -283 175 -464t435 -181q127 0 238.5 53t185.5 146l53 -43q-190 -215 -467 -218l-32 -86q31 25 77 25q59 0 96.5 -36t37.5 -97q0 -68 -57.5 -112
t-143.5 -44q-119 0 -191 58l29 55q66 -57 162 -57q59 0 100 27.5t41 72.5q0 88 -90 88q-55 0 -88 -39l-45 27l43 120q-270 18 -450.5 214t-180.5 491z" />
    <glyph glyph-name="Egrave" unicode="&#xc8;" horiz-adv-x="1142" 
d="M180 0v1366h836v-61h-770v-572h755v-61h-755v-611h770v-61h-836zM283 1776h92l327 -295h-61z" />
    <glyph glyph-name="Eacute" unicode="&#xc9;" horiz-adv-x="1142" 
d="M180 0v1366h836v-61h-770v-572h755v-61h-755v-611h770v-61h-836zM494 1481l327 295h92l-358 -295h-61z" />
    <glyph glyph-name="Ecircumflex" unicode="&#xca;" horiz-adv-x="1142" 
d="M180 0v1366h836v-61h-770v-572h755v-61h-755v-611h770v-61h-836zM354 1481l201 295h74l207 -295h-58l-186 245l-180 -245h-58z" />
    <glyph glyph-name="Edieresis" unicode="&#xcb;" horiz-adv-x="1142" 
d="M180 0v1366h836v-61h-770v-572h755v-61h-755v-611h770v-61h-836zM330 1566.5q0 22.5 17.5 40t40 17.5t39.5 -17.5t17 -40t-17 -40t-39.5 -17.5t-40 17.5t-17.5 40zM743 1566.5q0 22.5 17.5 40t40 17.5t40 -17.5t17.5 -40t-17.5 -40t-40 -17.5t-40 17.5t-17.5 40z" />
    <glyph glyph-name="Igrave" unicode="&#xcc;" 
d="M-102 1776h92l327 -295h-61zM180 0v1366h66v-1366h-66z" />
    <glyph glyph-name="Iacute" unicode="&#xcd;" 
d="M109 1481l327 295h92l-358 -295h-61zM180 0v1366h66v-1366h-66z" />
    <glyph glyph-name="Icircumflex" unicode="&#xce;" 
d="M-25 1481l201 295h74l207 -295h-58l-186 245l-180 -245h-58zM180 0v1366h66v-1366h-66z" />
    <glyph glyph-name="Idieresis" unicode="&#xcf;" 
d="M-51 1566.5q0 22.5 17.5 40t40 17.5t39.5 -17.5t17 -40t-17 -40t-39.5 -17.5t-40 17.5t-17.5 40zM180 0v1366h66v-1366h-66zM362 1566.5q0 22.5 17.5 40t40 17.5t40 -17.5t17.5 -40t-17.5 -40t-40 -17.5t-40 17.5t-17.5 40z" />
    <glyph glyph-name="Eth" unicode="&#xd0;" horiz-adv-x="1464" 
d="M25 651v62h219v653h405q307 0 493.5 -199.5t186.5 -484.5q0 -287 -185.5 -484.5t-494.5 -197.5h-405v651h-219zM309 61h340q283 0 445.5 176.5t162.5 444.5q0 266 -163.5 444.5t-444.5 178.5h-340v-592h385v-62h-385v-590z" />
    <glyph glyph-name="Ntilde" unicode="&#xd1;" horiz-adv-x="1413" 
d="M180 0v1366h66l921 -1247v1247h66v-1366h-66l-921 1260v-1260h-66zM395 1489q0 117 48.5 195.5t131.5 78.5q53 0 91.5 -35.5t55.5 -79.5t47 -80t69 -36q53 0 86.5 54t33.5 165h54q0 -117 -48.5 -195.5t-132.5 -78.5q-53 0 -91 35.5t-55 79.5t-47 80t-69 36
q-53 0 -86.5 -54.5t-33.5 -164.5h-54z" />
    <glyph glyph-name="Ograve" unicode="&#xd2;" horiz-adv-x="1564" 
d="M133 682q0 303 178 505t471 202q291 0 470.5 -202t179.5 -505t-179.5 -505t-470.5 -202q-293 0 -471 202t-178 505zM205 682q0 -283 157.5 -464t419.5 -181q260 0 419 181t159 464q0 285 -159 465t-419 180q-262 0 -419.5 -180t-157.5 -465zM467 1776h92l328 -295h-62z
" />
    <glyph glyph-name="Oacute" unicode="&#xd3;" horiz-adv-x="1564" 
d="M133 682q0 303 178 505t471 202q291 0 470.5 -202t179.5 -505t-179.5 -505t-470.5 -202q-293 0 -471 202t-178 505zM205 682q0 -283 157.5 -464t419.5 -181q260 0 419 181t159 464q0 285 -159 465t-419 180q-262 0 -419.5 -180t-157.5 -465zM678 1481l328 295h92
l-359 -295h-61z" />
    <glyph glyph-name="Ocircumflex" unicode="&#xd4;" horiz-adv-x="1564" 
d="M133 682q0 303 178 505t471 202q291 0 470.5 -202t179.5 -505t-179.5 -505t-470.5 -202q-293 0 -471 202t-178 505zM205 682q0 -283 157.5 -464t419.5 -181q260 0 419 181t159 464q0 285 -159 465t-419 180q-262 0 -419.5 -180t-157.5 -465zM545 1481l200 295h74
l207 -295h-57l-187 245l-180 -245h-57z" />
    <glyph glyph-name="Otilde" unicode="&#xd5;" horiz-adv-x="1564" 
d="M133 682q0 303 178 505t471 202q291 0 470.5 -202t179.5 -505t-179.5 -505t-470.5 -202q-293 0 -471 202t-178 505zM205 682q0 -283 157.5 -464t419.5 -181q260 0 419 181t159 464q0 285 -159 465t-419 180q-262 0 -419.5 -180t-157.5 -465zM475 1489q0 117 48 195.5
t132 78.5q53 0 91 -35.5t55.5 -79.5t47.5 -80t69 -36q53 0 86.5 54t33.5 165h54q0 -117 -48.5 -195.5t-132.5 -78.5q-53 0 -91 35.5t-55 79.5t-47 80t-69 36q-53 0 -87 -54.5t-34 -164.5h-53z" />
    <glyph glyph-name="Odieresis" unicode="&#xd6;" horiz-adv-x="1564" 
d="M133 682q0 303 178 505t471 202q291 0 470.5 -202t179.5 -505t-179.5 -505t-470.5 -202q-293 0 -471 202t-178 505zM205 682q0 -283 157.5 -464t419.5 -181q260 0 419 181t159 464q0 285 -159 465t-419 180q-262 0 -419.5 -180t-157.5 -465zM514 1566.5q0 22.5 17.5 40
t40 17.5t40 -17.5t17.5 -40t-17.5 -40t-40 -17.5t-40 17.5t-17.5 40zM928 1566.5q0 22.5 17.5 40t40 17.5t39.5 -17.5t17 -40t-17 -40t-39.5 -17.5t-40 17.5t-17.5 40z" />
    <glyph glyph-name="multiply" unicode="&#xd7;" horiz-adv-x="1011" 
d="M145 367l318 317l-318 317l43 43l318 -317l317 317l43 -43l-317 -317l317 -317l-43 -43l-317 317l-318 -317z" />
    <glyph glyph-name="Oslash" unicode="&#xd8;" horiz-adv-x="1564" 
d="M133 682q0 303 178 505t471 202q182 0 332 -89l39 66h74l-62 -102q127 -94 197 -247t70 -335q0 -303 -179.5 -505t-470.5 -202q-188 0 -333 88l-37 -63h-74l59 98q-127 96 -195.5 248t-68.5 336zM205 682q0 -348 225 -528l651 1093q-131 80 -299 80q-262 0 -419.5 -180
t-157.5 -465zM481 117q131 -80 301 -80q260 0 419 181t159 464q0 346 -227 528z" />
    <glyph glyph-name="Ugrave" unicode="&#xd9;" horiz-adv-x="1376" 
d="M180 518v848h66v-848q0 -229 114.5 -355t327.5 -126t327.5 126t114.5 355v848h66v-848q0 -256 -131 -399.5t-377 -143.5t-377 143.5t-131 399.5zM373 1776h92l328 -295h-62z" />
    <glyph glyph-name="Uacute" unicode="&#xda;" horiz-adv-x="1376" 
d="M180 518v848h66v-848q0 -229 114.5 -355t327.5 -126t327.5 126t114.5 355v848h66v-848q0 -256 -131 -399.5t-377 -143.5t-377 143.5t-131 399.5zM584 1481l327 295h93l-359 -295h-61z" />
    <glyph glyph-name="Ucircumflex" unicode="&#xdb;" horiz-adv-x="1376" 
d="M180 518v848h66v-848q0 -229 114.5 -355t327.5 -126t327.5 126t114.5 355v848h66v-848q0 -256 -131 -399.5t-377 -143.5t-377 143.5t-131 399.5zM455 1481l200 295h74l207 -295h-57l-187 245l-180 -245h-57z" />
    <glyph glyph-name="Udieresis" unicode="&#xdc;" horiz-adv-x="1376" 
d="M180 518v848h66v-848q0 -229 114.5 -355t327.5 -126t327.5 126t114.5 355v848h66v-848q0 -256 -131 -399.5t-377 -143.5t-377 143.5t-131 399.5zM424 1566.5q0 22.5 17.5 40t40 17.5t40 -17.5t17.5 -40t-17.5 -40t-40 -17.5t-40 17.5t-17.5 40zM838 1566.5q0 22.5 17 40
t40 17.5t40 -17.5t17 -40t-17 -40t-40 -17.5t-40 17.5t-17 40z" />
    <glyph glyph-name="Yacute" unicode="&#xdd;" horiz-adv-x="1249" 
d="M43 1366h84l498 -709l497 709h84l-549 -774v-592h-65v592zM520 1481l328 295h92l-358 -295h-62z" />
    <glyph glyph-name="Thorn" unicode="&#xde;" horiz-adv-x="1136" 
d="M180 0v1366h66v-264h407q184 0 292 -112.5t108 -276.5q0 -162 -108.5 -273.5t-291.5 -111.5h-407v-328h-66zM246 389h405q150 0 240 90t90 233.5t-90 235.5t-240 92h-405v-651z" />
    <glyph glyph-name="germandbls" unicode="&#xdf;" horiz-adv-x="1142" 
d="M176 0v1063q0 139 90 231t234 92q127 0 215 -62t88 -163q0 -74 -53.5 -128t-117 -83.5t-116.5 -82t-53 -119.5q0 -76 65.5 -120t158.5 -65.5t186.5 -47.5t159 -88t65.5 -167q0 -117 -88 -201t-267 -84q-133 0 -213.5 41t-148.5 117l49 45q113 -147 313 -147
q141 0 217 67.5t76 161.5q0 84 -65.5 133t-158.5 72.5l-186.5 49.5t-159 83t-65.5 154q0 78 53.5 137t117 91t116.5 79t53 102q0 78 -74.5 124t-166.5 46q-111 0 -186.5 -73.5t-75.5 -194.5v-1063h-62z" />
    <glyph glyph-name="agrave" unicode="&#xe0;" horiz-adv-x="1052" 
d="M127 305.5q0 151.5 102.5 240.5t243.5 89q209 0 342 -146v224q0 115 -80 180t-198 65q-188 0 -318 -155l-47 41q76 88 160 129t205 41q152 0 246 -77t94 -222v-715h-62v121q-133 -145 -342 -146q-139 0 -242.5 89.5t-103.5 241zM195 305q0 -117 80.5 -195.5t213.5 -78.5
q211 0 326 151v246q-115 152 -326 152q-133 0 -213.5 -79t-80.5 -196zM221 1434h92l328 -295h-61z" />
    <glyph glyph-name="aacute" unicode="&#xe1;" horiz-adv-x="1052" 
d="M127 305.5q0 151.5 102.5 240.5t243.5 89q209 0 342 -146v224q0 115 -80 180t-198 65q-188 0 -318 -155l-47 41q76 88 160 129t205 41q152 0 246 -77t94 -222v-715h-62v121q-133 -145 -342 -146q-139 0 -242.5 89.5t-103.5 241zM195 305q0 -117 80.5 -195.5t213.5 -78.5
q211 0 326 151v246q-115 152 -326 152q-133 0 -213.5 -79t-80.5 -196zM432 1139l328 295h92l-358 -295h-62z" />
    <glyph glyph-name="acircumflex" unicode="&#xe2;" horiz-adv-x="1052" 
d="M127 305.5q0 151.5 102.5 240.5t243.5 89q209 0 342 -146v224q0 115 -80 180t-198 65q-188 0 -318 -155l-47 41q76 88 160 129t205 41q152 0 246 -77t94 -222v-715h-62v121q-133 -145 -342 -146q-139 0 -242.5 89.5t-103.5 241zM195 305q0 -117 80.5 -195.5t213.5 -78.5
q211 0 326 151v246q-115 152 -326 152q-133 0 -213.5 -79t-80.5 -196zM299 1139l201 295h73l207 -295h-57l-186 245l-181 -245h-57z" />
    <glyph glyph-name="atilde" unicode="&#xe3;" horiz-adv-x="1052" 
d="M127 305.5q0 151.5 102.5 240.5t243.5 89q209 0 342 -146v224q0 115 -80 180t-198 65q-188 0 -318 -155l-47 41q76 88 160 129t205 41q152 0 246 -77t94 -222v-715h-62v121q-133 -145 -342 -146q-139 0 -242.5 89.5t-103.5 241zM195 305q0 -117 80.5 -195.5t213.5 -78.5
q211 0 326 151v246q-115 152 -326 152q-133 0 -213.5 -79t-80.5 -196zM227 1147q0 117 48.5 195.5t132.5 78.5q53 0 91 -35.5t55 -79.5t47 -80t69 -36q53 0 87 54t34 165h53q0 -117 -48 -195.5t-132 -78.5q-53 0 -91 35.5t-55.5 79.5t-47.5 80t-69 36q-53 0 -86.5 -54.5
t-33.5 -164.5h-54z" />
    <glyph glyph-name="adieresis" unicode="&#xe4;" horiz-adv-x="1052" 
d="M127 305.5q0 151.5 102.5 240.5t243.5 89q209 0 342 -146v224q0 115 -80 180t-198 65q-188 0 -318 -155l-47 41q76 88 160 129t205 41q152 0 246 -77t94 -222v-715h-62v121q-133 -145 -342 -146q-139 0 -242.5 89.5t-103.5 241zM195 305q0 -117 80.5 -195.5t213.5 -78.5
q211 0 326 151v246q-115 152 -326 152q-133 0 -213.5 -79t-80.5 -196zM268 1224.5q0 22.5 17.5 40t40 17.5t40 -17.5t17.5 -40t-17.5 -40t-40 -17.5t-40 17.5t-17.5 40zM682 1224.5q0 22.5 17.5 40t40 17.5t40 -17.5t17.5 -40t-17.5 -40t-40 -17.5t-40 17.5t-17.5 40z" />
    <glyph glyph-name="aring" unicode="&#xe5;" horiz-adv-x="1052" 
d="M127 305.5q0 151.5 102.5 240.5t243.5 89q209 0 342 -146v224q0 115 -80 180t-198 65q-188 0 -318 -155l-47 41q76 88 160 129t205 41q152 0 246 -77t94 -222v-715h-62v121q-133 -145 -342 -146q-139 0 -242.5 89.5t-103.5 241zM195 305q0 -117 80.5 -195.5t213.5 -78.5
q211 0 326 151v246q-115 152 -326 152q-133 0 -213.5 -79t-80.5 -196zM344 1323q0 78 56.5 134t134 56t133 -56t55.5 -134t-55.5 -134t-133 -56t-134 56t-56.5 134zM393 1323q0 -57 41 -99t101 -42q57 0 98 41t41 100t-41 100t-98 41q-59 0 -100.5 -42t-41.5 -99z" />
    <glyph glyph-name="ae" unicode="&#xe6;" horiz-adv-x="1853" 
d="M127 307q0 152 107.5 240t261.5 88q229 0 372 -141v219q0 117 -81.5 181t-221.5 64q-205 0 -346 -155l-47 41q145 170 410 170q125 0 227 -60.5t117 -193.5q47 111 148.5 182.5t221.5 71.5q207 0 321 -149.5t114 -368.5v-21h-801q6 -188 110.5 -316t274.5 -128
q190 0 321 149l37 -39q-145 -166 -356 -166q-139 0 -246.5 76t-159.5 215q-43 -133 -148.5 -212t-244.5 -79q-172 0 -281.5 89t-109.5 243zM195 305q0 -117 88 -195.5t233 -78.5q160 0 256 104.5t96 249.5v39q-125 156 -352 156q-145 0 -233 -79t-88 -196zM930 530h735
q0 166 -94 297t-275 131q-164 0 -262 -132t-104 -296z" />
    <glyph glyph-name="ccedilla" unicode="&#xe7;" horiz-adv-x="1009" 
d="M123 496q0 219 129 368.5t338 149.5q115 0 192.5 -41t145.5 -125l-45 -37q-109 147 -289 147q-186 0 -295 -132t-109 -330q0 -201 110 -333t294 -132q178 0 289 149l45 -39q-125 -158 -316 -166l-32 -90q31 25 77 25q59 0 96.5 -36t37.5 -97q0 -68 -57.5 -112t-143.5 -44
q-119 0 -191 57l29 56q66 -57 162 -58q59 0 100 28t41 73q0 88 -90 88q-55 0 -88 -39l-45 27l45 124q-195 14 -312.5 162t-117.5 357z" />
    <glyph glyph-name="egrave" unicode="&#xe8;" horiz-adv-x="1169" 
d="M123 496q0 217 133 367.5t332 150.5q217 0 338 -149.5t121 -368.5v-21h-854q4 -188 117.5 -316t297.5 -128q205 0 344 149l37 -39q-160 -166 -381 -166q-215 0 -350 147t-135 374zM193 530h788q0 100 -41 195.5t-134 164t-220 68.5q-178 0 -282.5 -132t-110.5 -296z
M272 1434h93l327 -295h-61z" />
    <glyph glyph-name="eacute" unicode="&#xe9;" horiz-adv-x="1169" 
d="M123 496q0 217 133 367.5t332 150.5q217 0 338 -149.5t121 -368.5v-21h-854q4 -188 117.5 -316t297.5 -128q205 0 344 149l37 -39q-160 -166 -381 -166q-215 0 -350 147t-135 374zM193 530h788q0 100 -41 195.5t-134 164t-220 68.5q-178 0 -282.5 -132t-110.5 -296z
M483 1139l328 295h92l-358 -295h-62z" />
    <glyph glyph-name="ecircumflex" unicode="&#xea;" horiz-adv-x="1169" 
d="M123 496q0 217 133 367.5t332 150.5q217 0 338 -149.5t121 -368.5v-21h-854q4 -188 117.5 -316t297.5 -128q205 0 344 149l37 -39q-160 -166 -381 -166q-215 0 -350 147t-135 374zM193 530h788q0 100 -41 195.5t-134 164t-220 68.5q-178 0 -282.5 -132t-110.5 -296z
M352 1139l201 295h74l207 -295h-58l-186 245l-180 -245h-58z" />
    <glyph glyph-name="edieresis" unicode="&#xeb;" horiz-adv-x="1169" 
d="M123 496q0 217 133 367.5t332 150.5q217 0 338 -149.5t121 -368.5v-21h-854q4 -188 117.5 -316t297.5 -128q205 0 344 149l37 -39q-160 -166 -381 -166q-215 0 -350 147t-135 374zM193 530h788q0 100 -41 195.5t-134 164t-220 68.5q-178 0 -282.5 -132t-110.5 -296z
M326 1224.5q0 22.5 17 40t40 17.5t40 -17.5t17 -40t-17 -40t-40 -17.5t-40 17.5t-17 40zM739 1224.5q0 22.5 17.5 40t40 17.5t40 -17.5t17.5 -40t-17.5 -40t-40 -17.5t-40 17.5t-17.5 40z" />
    <glyph glyph-name="igrave" unicode="&#xec;" horiz-adv-x="413" 
d="M-109 1434h93l327 -295h-61zM176 0v989h62v-989h-62z" />
    <glyph glyph-name="iacute" unicode="&#xed;" horiz-adv-x="413" 
d="M102 1139l328 295h92l-358 -295h-62zM176 0v989h62v-989h-62z" />
    <glyph glyph-name="icircumflex" unicode="&#xee;" horiz-adv-x="413" 
d="M-33 1139l201 295h74l207 -295h-58l-186 245l-180 -245h-58zM176 0v989h62v-989h-62z" />
    <glyph glyph-name="idieresis" unicode="&#xef;" horiz-adv-x="413" 
d="M-57 1224.5q0 22.5 17 40t40 17.5t40 -17.5t17 -40t-17 -40t-40 -17.5t-40 17.5t-17 40zM176 0v989h62v-989h-62zM356 1224.5q0 22.5 17.5 40t40 17.5t40 -17.5t17.5 -40t-17.5 -40t-40 -17.5t-40 17.5t-17.5 40z" />
    <glyph glyph-name="eth" unicode="&#xf0;" horiz-adv-x="1167" 
d="M123 496q0 221 128 369.5t333 148.5q195 0 319 -174q-129 203 -332 356l-288 -127l-23 53l258 115l-178 117l37 55q135 -84 211 -141l227 100l23 -53l-199 -88q406 -334 405 -731q0 -223 -126.5 -372t-333.5 -149q-205 0 -333 149t-128 372zM190 496q0 -193 106.5 -329
t287.5 -136q182 0 287.5 136t105.5 329q0 190 -105.5 326t-287.5 136q-180 0 -287 -136t-107 -326z" />
    <glyph glyph-name="ntilde" unicode="&#xf1;" horiz-adv-x="1081" 
d="M176 0v989h62v-155q59 72 159.5 126t198.5 54q154 0 231.5 -77t77.5 -247v-690h-61v690q0 147 -65.5 207.5t-190.5 60.5q-98 0 -196.5 -54t-153.5 -132v-772h-62zM233 1147q0 117 48.5 195.5t132.5 78.5q53 0 91 -35.5t55.5 -79.5t47 -80t68.5 -36q53 0 87 54t34 165h53
q0 -117 -48 -195.5t-132 -78.5q-53 0 -91 35.5t-55.5 79.5t-47.5 80t-68 36q-53 0 -87 -54.5t-34 -164.5h-54z" />
    <glyph glyph-name="ograve" unicode="&#xf2;" horiz-adv-x="1167" 
d="M123 496q0 221 128 369.5t333 148.5q207 0 333.5 -147.5t126.5 -371t-126.5 -372t-333.5 -148.5q-205 0 -333 149t-128 372zM190 496q0 -193 106.5 -329t287.5 -136q182 0 287.5 136t105.5 329q0 190 -105.5 326t-287.5 136q-180 0 -287 -136t-107 -326zM268 1434h92
l328 -295h-61z" />
    <glyph glyph-name="oacute" unicode="&#xf3;" horiz-adv-x="1167" 
d="M123 496q0 221 128 369.5t333 148.5q207 0 333.5 -147.5t126.5 -371t-126.5 -372t-333.5 -148.5q-205 0 -333 149t-128 372zM190 496q0 -193 106.5 -329t287.5 -136q182 0 287.5 136t105.5 329q0 190 -105.5 326t-287.5 136q-180 0 -287 -136t-107 -326zM479 1139
l328 295h92l-358 -295h-62z" />
    <glyph glyph-name="ocircumflex" unicode="&#xf4;" horiz-adv-x="1167" 
d="M123 496q0 221 128 369.5t333 148.5q207 0 333.5 -147.5t126.5 -371t-126.5 -372t-333.5 -148.5q-205 0 -333 149t-128 372zM190 496q0 -193 106.5 -329t287.5 -136q182 0 287.5 136t105.5 329q0 190 -105.5 326t-287.5 136q-180 0 -287 -136t-107 -326zM346 1139
l201 295h74l206 -295h-57l-186 245l-181 -245h-57z" />
    <glyph glyph-name="otilde" unicode="&#xf5;" horiz-adv-x="1167" 
d="M123 496q0 221 128 369.5t333 148.5q207 0 333.5 -147.5t126.5 -371t-126.5 -372t-333.5 -148.5q-205 0 -333 149t-128 372zM190 496q0 -193 106.5 -329t287.5 -136q182 0 287.5 136t105.5 329q0 190 -105.5 326t-287.5 136q-180 0 -287 -136t-107 -326zM276 1147
q0 117 48.5 195.5t132.5 78.5q53 0 91 -35.5t55.5 -79.5t47 -80t68.5 -36q53 0 87 54t34 165h53q0 -117 -48 -195.5t-132 -78.5q-53 0 -91 35.5t-55.5 79.5t-47.5 80t-68 36q-53 0 -87 -54.5t-34 -164.5h-54z" />
    <glyph glyph-name="odieresis" unicode="&#xf6;" horiz-adv-x="1167" 
d="M123 496q0 221 128 369.5t333 148.5q207 0 333.5 -147.5t126.5 -371t-126.5 -372t-333.5 -148.5q-205 0 -333 149t-128 372zM190 496q0 -193 106.5 -329t287.5 -136q182 0 287.5 136t105.5 329q0 190 -105.5 326t-287.5 136q-180 0 -287 -136t-107 -326zM319 1224.5
q0 22.5 17.5 40t40 17.5t40 -17.5t17.5 -40t-17.5 -40t-40 -17.5t-40 17.5t-17.5 40zM733 1224.5q0 22.5 17.5 40t40 17.5t40 -17.5t17.5 -40t-17.5 -40t-40 -17.5t-40 17.5t-17.5 40z" />
    <glyph glyph-name="divide" unicode="&#xf7;" horiz-adv-x="1046" 
d="M59 659v62h928v-62h-928zM457 272.5q0 26.5 19.5 47t48 20.5t48 -20.5t19.5 -47t-19.5 -47t-48 -20.5t-48 20.5t-19.5 47zM457 1098q0 27 19.5 46t48 19t48 -19.5t19.5 -45.5q0 -29 -20.5 -49.5t-47 -20.5t-47 20.5t-20.5 49.5z" />
    <glyph glyph-name="oslash" unicode="&#xf8;" horiz-adv-x="1167" 
d="M123 496q0 221 128 369.5t333 148.5q156 0 272 -90l49 65h68l-76 -102q147 -147 147 -391q0 -223 -126.5 -372t-333.5 -149q-166 0 -285 101l-57 -76h-70l86 115q-135 148 -135 381zM190 496q0 -197 107 -328l522 706q-100 84 -235 84q-180 0 -287 -136t-107 -326z
M334 125q100 -94 250 -94q182 0 287.5 136t105.5 329q0 207 -117 340z" />
    <glyph glyph-name="ugrave" unicode="&#xf9;" horiz-adv-x="1081" 
d="M176 295v694h62v-694q0 -147 65.5 -205.5t190.5 -58.5q98 0 197.5 52t152.5 128v778h61v-989h-61v152q-68 -76 -164 -126.5t-195 -50.5q-154 0 -231.5 75t-77.5 245zM225 1434h92l328 -295h-61z" />
    <glyph glyph-name="uacute" unicode="&#xfa;" horiz-adv-x="1081" 
d="M176 295v694h62v-694q0 -147 65.5 -205.5t190.5 -58.5q98 0 197.5 52t152.5 128v778h61v-989h-61v152q-68 -76 -164 -126.5t-195 -50.5q-154 0 -231.5 75t-77.5 245zM436 1139l328 295h92l-358 -295h-62z" />
    <glyph glyph-name="ucircumflex" unicode="&#xfb;" horiz-adv-x="1081" 
d="M176 295v694h62v-694q0 -147 65.5 -205.5t190.5 -58.5q98 0 197.5 52t152.5 128v778h61v-989h-61v152q-68 -76 -164 -126.5t-195 -50.5q-154 0 -231.5 75t-77.5 245zM299 1139l201 295h73l207 -295h-57l-186 245l-181 -245h-57z" />
    <glyph glyph-name="udieresis" unicode="&#xfc;" horiz-adv-x="1081" 
d="M176 295v694h62v-694q0 -147 65.5 -205.5t190.5 -58.5q98 0 197.5 52t152.5 128v778h61v-989h-61v152q-68 -76 -164 -126.5t-195 -50.5q-154 0 -231.5 75t-77.5 245zM285 1224.5q0 22.5 17 40t40 17.5t40 -17.5t17 -40t-17 -40t-40 -17.5t-40 17.5t-17 40zM698 1224.5
q0 22.5 17.5 40t40 17.5t40 -17.5t17.5 -40t-17.5 -40t-40 -17.5t-40 17.5t-17.5 40z" />
    <glyph glyph-name="yacute" unicode="&#xfd;" horiz-adv-x="964" 
d="M23 989h71l389 -917l387 917h72l-524 -1222q-74 -168 -217 -168q-55 0 -99 14l13 57q37 -16 86 -16q51 0 87 29.5t68 105.5l90 205zM379 1139l328 295h92l-359 -295h-61z" />
    <glyph glyph-name="thorn" unicode="&#xfe;" horiz-adv-x="1150" 
d="M176 -377v1743h62v-543q53 82 149 136.5t207 54.5q201 0 321.5 -141.5t120.5 -376.5q0 -233 -121.5 -377t-320.5 -144q-109 0 -202 52.5t-154 142.5v-547h-62zM238 231q49 -82 147 -141t209 -59q176 0 275.5 131t99.5 333.5t-99.5 332.5t-275.5 130q-111 0 -209 -57
t-147 -139v-531z" />
    <glyph glyph-name="ydieresis" unicode="&#xff;" horiz-adv-x="964" 
d="M23 989h71l389 -917l387 917h72l-524 -1222q-74 -168 -217 -168q-55 0 -99 14l13 57q37 -16 86 -16q51 0 87 29.5t68 105.5l90 205zM219 1224.5q0 22.5 17.5 40t40 17.5t40 -17.5t17.5 -40t-17.5 -40t-40 -17.5t-40 17.5t-17.5 40zM633 1224.5q0 22.5 17.5 40t40 17.5
t40 -17.5t17.5 -40t-17.5 -40t-40 -17.5t-40 17.5t-17.5 40z" />
    <glyph glyph-name="OE" unicode="&#x152;" horiz-adv-x="2301" 
d="M133 682q0 303 178 503.5t471 200.5q176 0 323.5 -89t227.5 -253v322h836v-61h-770v-572h755v-61h-755v-611h770v-61h-836v322q-80 -166 -227.5 -256.5t-323.5 -90.5q-293 0 -471 202t-178 505zM205 682q0 -285 157.5 -465t419.5 -180q190 0 336 104.5t215 304.5v474
q-70 201 -214 303t-337 102q-262 0 -419.5 -179t-157.5 -464z" />
    <glyph glyph-name="oe" unicode="&#x153;" horiz-adv-x="2023" 
d="M123 496q0 221 128 369.5t333 148.5q98 0 180 -35t131 -91.5t76.5 -108.5t40.5 -101q14 51 44.5 104.5t81 107.5t130.5 89t174 35q217 0 338 -149.5t121 -368.5v-21h-854q4 -188 117.5 -316t297.5 -128q205 0 344 149l37 -39q-160 -166 -381 -166q-102 0 -185 34
t-135 87.5t-84 107.5t-46 107q-16 -53 -44 -104t-77 -106.5t-129 -90.5t-178 -35q-205 0 -333 149t-128 372zM190 496q0 -193 106.5 -330t287.5 -137q182 0 287.5 137t105.5 330q0 190 -105.5 326t-287.5 136q-180 0 -287 -136t-107 -326zM1047 530h788q0 100 -41 195.5
t-134 164t-220 68.5q-178 0 -282.5 -132t-110.5 -296z" />
    <glyph glyph-name="Ydieresis" unicode="&#x178;" horiz-adv-x="1249" 
d="M43 1366h84l498 -709l497 709h84l-549 -774v-592h-65v592zM369 1566.5q0 22.5 17 40t40 17.5t40 -17.5t17 -40t-17 -40t-40 -17.5t-40 17.5t-17 40zM782 1566.5q0 22.5 17.5 40t40 17.5t40 -17.5t17.5 -40t-17.5 -40t-40 -17.5t-40 17.5t-17.5 40z" />
    <glyph glyph-name="circumflex" unicode="&#x2c6;" horiz-adv-x="481" 
d="M0 1139l201 295h73l207 -295h-57l-186 245l-181 -245h-57z" />
    <glyph glyph-name="tilde" unicode="&#x2dc;" horiz-adv-x="616" 
d="M0 1147q0 117 48 195.5t132 78.5q53 0 91 -35.5t55.5 -79.5t47 -80t68.5 -36q53 0 87 54t34 165h53q0 -117 -48 -195.5t-132 -78.5q-53 0 -91 35.5t-55.5 79.5t-47 80t-68.5 36q-53 0 -87 -54.5t-34 -164.5h-53z" />
    <glyph glyph-name="uni2000" unicode="&#x2000;" horiz-adv-x="899" 
 />
    <glyph glyph-name="uni2001" unicode="&#x2001;" horiz-adv-x="1798" 
 />
    <glyph glyph-name="uni2002" unicode="&#x2002;" horiz-adv-x="899" 
 />
    <glyph glyph-name="uni2003" unicode="&#x2003;" horiz-adv-x="1798" 
 />
    <glyph glyph-name="uni2004" unicode="&#x2004;" horiz-adv-x="598" 
 />
    <glyph glyph-name="uni2005" unicode="&#x2005;" horiz-adv-x="448" 
 />
    <glyph glyph-name="uni2006" unicode="&#x2006;" horiz-adv-x="299" 
 />
    <glyph glyph-name="uni2007" unicode="&#x2007;" horiz-adv-x="299" 
 />
    <glyph glyph-name="uni2008" unicode="&#x2008;" horiz-adv-x="223" 
 />
    <glyph glyph-name="uni2009" unicode="&#x2009;" horiz-adv-x="358" 
 />
    <glyph glyph-name="uni200A" unicode="&#x200a;" horiz-adv-x="98" 
 />
    <glyph glyph-name="uni2010" unicode="&#x2010;" horiz-adv-x="614" 
d="M61 465v61h492v-61h-492z" />
    <glyph glyph-name="uni2011" unicode="&#x2011;" horiz-adv-x="614" 
d="M61 465v61h492v-61h-492z" />
    <glyph glyph-name="figuredash" unicode="&#x2012;" horiz-adv-x="614" 
d="M61 465v61h492v-61h-492z" />
    <glyph glyph-name="endash" unicode="&#x2013;" horiz-adv-x="1214" 
d="M61 465v61h1092v-61h-1092z" />
    <glyph glyph-name="emdash" unicode="&#x2014;" horiz-adv-x="1705" 
d="M61 465v61h1584v-61h-1584z" />
    <glyph glyph-name="quoteleft" unicode="&#x2018;" 
d="M113 1139q0 74 36.5 142.5t90.5 104.5l45 -36q-49 -37 -79 -89.5t-30 -99.5q12 2 17 2q29 0 47 -19.5t18 -47.5q0 -27 -18.5 -46.5t-46.5 -19.5q-33 0 -56.5 29t-23.5 80z" />
    <glyph glyph-name="quoteright" unicode="&#x2019;" 
d="M119 1067q49 37 78.5 89t29.5 99q-12 -2 -16 -2q-29 0 -47.5 19.5t-18.5 48.5q0 27 18.5 46t47.5 19q33 0 56.5 -28.5t23.5 -79.5q0 -74 -37 -142.5t-90 -105.5z" />
    <glyph glyph-name="quotesinglbase" unicode="&#x201a;" 
d="M119 -205q49 37 78.5 89.5t29.5 99.5q-12 -2 -16 -2q-29 0 -47.5 19t-18.5 48q0 27 18.5 46.5t47.5 19.5q33 0 56.5 -29t23.5 -80q0 -74 -37 -142.5t-90 -105.5z" />
    <glyph glyph-name="quotedblleft" unicode="&#x201c;" horiz-adv-x="677" 
d="M135 1139q0 74 37 142.5t90 104.5l45 -36q-49 -37 -78.5 -89.5t-29.5 -99.5q12 2 16 2q29 0 47.5 -19.5t18.5 -47.5q0 -27 -18.5 -46.5t-47.5 -19.5q-33 0 -56.5 29t-23.5 80zM387 1139q0 74 37 142.5t90 104.5l45 -36q-49 -37 -78.5 -89.5t-29.5 -99.5q12 2 16 2
q29 0 47 -19.5t18 -47.5q0 -27 -18 -46.5t-47 -19.5q-33 0 -56.5 29t-23.5 80z" />
    <glyph glyph-name="quotedblright" unicode="&#x201d;" horiz-adv-x="677" 
d="M119 1067q49 37 78.5 89t29.5 99q-12 -2 -16 -2q-29 0 -47.5 19.5t-18.5 48.5q0 27 18.5 46t47.5 19q33 0 56.5 -28.5t23.5 -79.5q0 -74 -37 -142.5t-90 -105.5zM371 1067q49 37 78.5 89t29.5 99q-12 -2 -16 -2q-29 0 -47.5 19.5t-18.5 48.5q0 27 18.5 46t47.5 19
q33 0 56.5 -28.5t23.5 -79.5q0 -74 -37 -142.5t-90 -105.5z" />
    <glyph glyph-name="quotedblbase" unicode="&#x201e;" horiz-adv-x="677" 
d="M119 -205q49 37 78.5 89.5t29.5 99.5q-12 -2 -16 -2q-29 0 -47.5 19t-18.5 48q0 27 18.5 46.5t47.5 19.5q33 0 56.5 -29t23.5 -80q0 -74 -37 -142.5t-90 -105.5zM371 -205q49 37 78.5 89.5t29.5 99.5q-12 -2 -16 -2q-29 0 -47.5 19t-18.5 48q0 27 18.5 46.5t47.5 19.5
q33 0 56.5 -29t23.5 -80q0 -74 -37 -142.5t-90 -105.5z" />
    <glyph glyph-name="bullet" unicode="&#x2022;" horiz-adv-x="733" 
d="M168 496q0 82 59.5 141t141.5 59t141 -59t59 -141t-59 -140.5t-141 -58.5t-141.5 58.5t-59.5 140.5z" />
    <glyph glyph-name="ellipsis" unicode="&#x2026;" horiz-adv-x="1277" 
d="M145 49q0 27 20.5 46.5t47.5 19.5t47.5 -19.5t20.5 -46.5q0 -29 -19.5 -48t-48.5 -19t-48.5 19t-19.5 48zM571 49q0 27 20.5 46.5t47.5 19.5t47.5 -19.5t20.5 -46.5q0 -29 -19.5 -48t-48.5 -19t-48.5 19t-19.5 48zM997 49q0 27 20.5 46.5t47.5 19.5t47.5 -19.5
t20.5 -46.5q0 -29 -19.5 -48t-48.5 -19t-48.5 19t-19.5 48z" />
    <glyph glyph-name="uni202F" unicode="&#x202f;" horiz-adv-x="358" 
 />
    <glyph glyph-name="guilsinglleft" unicode="&#x2039;" horiz-adv-x="530" 
d="M61 498l328 362h80l-328 -362l328 -369h-80z" />
    <glyph glyph-name="guilsinglright" unicode="&#x203a;" horiz-adv-x="530" 
d="M61 129l328 369l-328 362h80l328 -362l-328 -369h-80z" />
    <glyph glyph-name="uni205F" unicode="&#x205f;" horiz-adv-x="448" 
 />
    <glyph glyph-name="Euro" unicode="&#x20ac;" horiz-adv-x="1400" 
d="M80 506v61h102q-8 49 -8 115q0 41 8 119h-102v61h113q55 238 238 382.5t425 144.5q289 0 475 -215l-51 -46q-74 92 -185.5 145.5t-238.5 53.5q-215 0 -377 -127t-213 -338h713v-61h-725q-8 -51 -8 -119q0 -41 8 -115h725v-61h-713q51 -213 213 -341t377 -128
q127 0 238.5 53t185.5 146l53 -43q-193 -217 -477 -218q-244 0 -427 145.5t-236 385.5h-113z" />
    <glyph glyph-name="trademark" unicode="&#x2122;" horiz-adv-x="929" 
d="M35 1313v53h311v-53h-127v-398h-57v398h-127zM420 915v451h88l131 -328l131 328h88v-451h-57v373l-154 -373h-16l-154 373v-373h-57z" />
    <glyph glyph-name="uniE000" unicode="&#xe000;" horiz-adv-x="990" 
d="M0 990h990v-990h-990v990z" />
    <glyph glyph-name="uniFB01" unicode="&#xfb01;" horiz-adv-x="917" 
d="M41 934v55h164v105q0 137 65.5 214.5t182.5 77.5q72 0 116 -26l-26 -53q-43 25 -90 24q-186 0 -187 -237v-105h201v-55h-201v-934h-61v934h-164zM651 1218.5q0 24.5 18.5 42t41.5 17.5q25 0 42 -17.5t17 -42t-17.5 -42t-41.5 -17.5q-23 0 -41.5 17.5t-18.5 42zM680 0v989
h61v-989h-61z" />
    <glyph glyph-name="uniFB02" unicode="&#xfb02;" horiz-adv-x="917" 
d="M41 934v55h164v105q0 137 65.5 214.5t182.5 77.5q72 0 116 -26l-26 -53q-43 25 -90 24q-186 0 -187 -237v-105h201v-55h-201v-934h-61v934h-164zM680 0v1366h61v-1366h-61z" />
    <glyph glyph-name="uniFB03" unicode="&#xfb03;" horiz-adv-x="1421" 
d="M41 934v55h164v105q0 137 65.5 214.5t182.5 77.5q92 0 168 -61l-37 -49q-59 55 -131 55q-186 0 -187 -237v-105h201v-55h-201v-934h-61v934h-164zM545 934v55h164v105q0 137 65.5 214.5t181.5 77.5q72 0 117 -26l-26 -53q-43 25 -91 24q-186 0 -186 -237v-105h201v-55
h-201v-934h-61v934h-164zM1155 1218.5q0 24.5 18.5 42t40.5 17.5q25 0 42.5 -17.5t17.5 -42t-17.5 -42t-42.5 -17.5q-23 0 -41 17.5t-18 42zM1184 0v989h61v-989h-61z" />
    <glyph glyph-name="uniFB04" unicode="&#xfb04;" horiz-adv-x="1421" 
d="M41 934v55h164v105q0 137 65.5 214.5t182.5 77.5q92 0 168 -61l-37 -49q-59 55 -131 55q-186 0 -187 -237v-105h201v-55h-201v-934h-61v934h-164zM545 934v55h164v105q0 137 65.5 214.5t181.5 77.5q72 0 117 -26l-26 -53q-43 25 -91 24q-186 0 -186 -237v-105h201v-55
h-201v-934h-61v934h-164zM1184 0v1366h61v-1366h-61z" />
    </font>
</defs>
</svg>
